M48
; DRILL file {KiCad 8.0.4} date 2024-07-27T12:14:12+0200
; FORMAT={-:-/ absolute / metric / decimal}
; #@! TF.CreationDate,2024-07-27T12:14:12+02:00
; #@! TF.GenerationSoftware,Kicad,Pcbnew,8.0.4
; #@! TF.FileFunction,Plated,1,2,PTH
FMAT,2
METRIC
; #@! TA.AperFunction,Plated,PTH,ViaDrill
T1C0.300
; #@! TA.AperFunction,Plated,PTH,ComponentDrill
T2C0.750
; #@! TA.AperFunction,Plated,PTH,ComponentDrill
T3C0.800
; #@! TA.AperFunction,Plated,PTH,ComponentDrill
T4C0.900
; #@! TA.AperFunction,Plated,PTH,ComponentDrill
T5C1.092
; #@! TA.AperFunction,Plated,PTH,ComponentDrill
T6C1.200
; #@! TA.AperFunction,Plated,PTH,ComponentDrill
T7C1.300
; #@! TA.AperFunction,Plated,PTH,ComponentDrill
T8C1.500
%
G90
G05
T1
X172.0Y-82.5
T2
X356.61Y-89.0
X356.61Y-91.0
T3
X85.0Y-107.69
X85.0Y-115.31
X85.5Y-84.69
X85.5Y-92.31
X94.0Y-126.69
X94.0Y-134.31
X94.0Y-164.69
X94.0Y-172.31
X94.0Y-183.69
X94.0Y-191.31
X98.5Y-145.69
X98.5Y-153.31
X104.0Y-107.69
X104.0Y-115.31
X113.0Y-84.69
X113.0Y-92.31
X113.0Y-126.69
X113.0Y-134.31
X113.0Y-164.69
X113.0Y-172.31
X117.5Y-145.69
X117.5Y-153.31
X117.5Y-183.69
X117.5Y-191.31
X123.0Y-107.69
X123.0Y-115.31
X132.0Y-84.69
X132.0Y-92.31
X132.0Y-126.69
X132.0Y-134.31
X132.0Y-164.69
X132.0Y-172.31
X136.5Y-145.69
X136.5Y-153.31
X141.0Y-183.69
X141.0Y-191.31
X142.0Y-107.69
X142.0Y-115.31
X151.0Y-84.69
X151.0Y-92.31
X151.0Y-126.69
X151.0Y-134.31
X151.0Y-164.69
X151.0Y-172.31
X155.5Y-145.69
X155.5Y-153.31
X161.0Y-107.69
X161.0Y-115.31
X170.0Y-84.69
X170.0Y-92.31
X170.0Y-126.69
X170.0Y-134.31
X170.0Y-164.69
X170.0Y-172.31
X174.5Y-145.69
X174.5Y-153.31
X180.0Y-107.69
X180.0Y-115.31
X189.0Y-126.69
X189.0Y-134.31
X189.0Y-164.69
X189.0Y-172.31
X193.5Y-145.69
X193.5Y-153.31
X194.0Y-84.69
X194.0Y-92.31
X199.0Y-107.69
X199.0Y-115.31
X208.0Y-126.69
X208.0Y-134.31
X208.0Y-164.69
X208.0Y-172.31
X212.5Y-145.69
X212.5Y-153.31
X213.0Y-84.69
X213.0Y-92.31
X218.0Y-107.69
X218.0Y-115.31
X227.0Y-126.69
X227.0Y-134.31
X227.0Y-164.69
X227.0Y-172.31
X231.5Y-145.69
X231.5Y-153.31
X232.0Y-84.69
X232.0Y-92.31
X237.0Y-107.69
X237.0Y-115.31
X241.0Y-183.69
X241.0Y-191.31
X246.0Y-126.69
X246.0Y-134.31
X246.0Y-164.69
X246.0Y-172.31
X250.5Y-145.69
X250.5Y-153.31
X251.0Y-84.69
X251.0Y-92.31
X256.0Y-107.69
X256.0Y-115.31
X264.5Y-183.69
X264.5Y-191.31
X265.0Y-126.69
X265.0Y-134.31
X265.0Y-164.69
X265.0Y-172.31
X269.5Y-145.69
X269.5Y-153.31
X275.0Y-84.69
X275.0Y-92.31
X275.0Y-107.69
X275.0Y-115.31
X284.0Y-126.69
X284.0Y-134.31
X284.0Y-164.69
X284.0Y-172.31
X288.0Y-183.69
X288.0Y-191.31
X288.5Y-145.69
X288.5Y-153.31
X294.0Y-84.69
X294.0Y-92.31
X294.0Y-107.69
X294.0Y-115.31
X303.0Y-126.69
X303.0Y-134.31
X303.0Y-164.69
X303.0Y-172.31
X307.5Y-145.69
X307.5Y-153.31
X311.5Y-183.69
X311.5Y-191.31
X313.0Y-84.69
X313.0Y-92.31
X313.0Y-107.69
X313.0Y-115.31
X322.0Y-126.69
X322.0Y-134.31
X326.5Y-145.69
X326.5Y-153.31
X331.0Y-164.69
X331.0Y-172.31
X331.5Y-183.69
X331.5Y-191.31
X332.0Y-84.69
X332.0Y-92.31
X332.0Y-107.69
X332.0Y-115.31
X350.5Y-135.19
X350.5Y-142.81
X350.5Y-164.69
X350.5Y-172.31
X350.5Y-183.69
X350.5Y-191.31
X351.0Y-107.69
X351.0Y-115.31
X355.0Y-121.0
X355.0Y-140.0
X355.0Y-159.0
X355.0Y-178.0
X356.19Y-102.0
X362.62Y-121.0
X362.62Y-140.0
X362.62Y-159.0
X362.62Y-178.0
X363.81Y-102.0
T4
X367.25Y-89.0
X367.25Y-91.0
X367.25Y-93.0
T5
X337.64Y-82.26
X337.64Y-97.5
X340.18Y-82.26
X340.18Y-97.5
X342.72Y-82.26
X342.72Y-84.8
X342.72Y-87.34
X342.72Y-89.88
X342.72Y-97.5
X345.26Y-82.26
X345.26Y-97.5
X347.8Y-82.26
X347.8Y-97.5
X350.34Y-82.26
X350.34Y-97.5
X352.88Y-82.26
X352.88Y-97.5
X355.42Y-82.26
X355.42Y-97.5
X357.96Y-82.26
X357.96Y-97.5
X360.5Y-82.26
X360.5Y-97.5
X363.04Y-82.26
X363.04Y-97.5
X365.58Y-82.26
X365.58Y-97.5
T6
X75.5Y-82.6
X75.5Y-105.6
X80.0Y-124.6
X80.0Y-162.6
X80.0Y-181.6
X80.5Y-84.7
X80.5Y-107.7
X82.25Y-143.6
X85.0Y-126.7
X85.0Y-164.7
X85.0Y-183.7
X87.25Y-145.7
X94.5Y-105.6
X99.5Y-107.7
X103.5Y-82.6
X103.5Y-124.6
X103.5Y-162.6
X105.75Y-181.6
X108.0Y-143.6
X108.5Y-84.7
X108.5Y-126.7
X108.5Y-164.7
X110.75Y-183.7
X113.0Y-145.7
X113.5Y-105.6
X118.5Y-107.7
X122.5Y-82.6
X122.5Y-124.6
X122.5Y-162.6
X127.0Y-143.6
X127.5Y-84.7
X127.5Y-126.7
X127.5Y-164.7
X129.25Y-181.6
X132.0Y-145.7
X132.5Y-105.6
X134.25Y-183.7
X137.5Y-107.7
X141.5Y-82.6
X141.5Y-124.6
X141.5Y-162.6
X146.0Y-143.6
X146.5Y-84.7
X146.5Y-126.7
X146.5Y-164.7
X151.0Y-145.7
X151.5Y-105.6
X156.5Y-107.7
X160.5Y-82.6
X160.5Y-124.6
X160.5Y-162.6
X165.0Y-143.6
X165.5Y-84.7
X165.5Y-126.7
X165.5Y-164.7
X170.0Y-145.7
X170.5Y-105.6
X175.5Y-107.7
X179.5Y-124.6
X179.5Y-162.6
X184.0Y-143.6
X184.5Y-82.6
X184.5Y-126.7
X184.5Y-164.7
X189.0Y-145.7
X189.5Y-84.7
X189.5Y-105.6
X191.0Y-181.6
X194.5Y-107.7
X196.0Y-183.7
X198.5Y-124.6
X198.5Y-162.6
X203.0Y-143.6
X203.5Y-82.6
X203.5Y-126.7
X203.5Y-164.7
X208.0Y-145.7
X208.5Y-84.7
X208.5Y-105.6
X213.5Y-107.7
X217.5Y-124.6
X217.5Y-162.6
X222.0Y-143.6
X222.5Y-82.6
X222.5Y-126.7
X222.5Y-164.7
X227.0Y-145.7
X227.5Y-84.7
X227.5Y-105.6
X232.5Y-107.7
X236.5Y-124.6
X236.5Y-162.6
X241.0Y-143.6
X241.5Y-82.6
X241.5Y-126.7
X241.5Y-164.7
X246.0Y-145.7
X246.5Y-84.7
X246.5Y-105.6
X251.5Y-107.7
X252.75Y-181.6
X255.5Y-124.6
X255.5Y-162.6
X257.75Y-183.7
X260.0Y-143.6
X260.5Y-126.7
X260.5Y-164.7
X265.0Y-145.7
X265.5Y-82.6
X265.5Y-105.6
X270.5Y-84.7
X270.5Y-107.7
X274.5Y-124.6
X274.5Y-162.6
X276.25Y-181.6
X279.0Y-143.6
X279.5Y-126.7
X279.5Y-164.7
X281.25Y-183.7
X284.0Y-145.7
X284.5Y-82.6
X284.5Y-105.6
X289.5Y-84.7
X289.5Y-107.7
X293.5Y-124.6
X293.5Y-162.6
X298.0Y-143.6
X298.5Y-126.7
X298.5Y-164.7
X299.75Y-181.6
X303.0Y-145.7
X303.5Y-82.6
X303.5Y-105.6
X304.75Y-183.7
X308.5Y-84.7
X308.5Y-107.7
X312.5Y-124.6
X317.0Y-143.6
X317.0Y-162.6
X317.5Y-126.7
X322.0Y-145.7
X322.0Y-164.7
X322.0Y-181.6
X322.5Y-82.6
X322.5Y-105.6
X327.0Y-183.7
X327.5Y-84.7
X327.5Y-107.7
X338.5Y-133.1
X341.0Y-162.6
X341.0Y-181.6
X341.5Y-105.6
X343.5Y-135.2
X346.0Y-164.7
X346.0Y-183.7
X346.5Y-107.7
X360.0Y-181.6
X360.5Y-105.6
X360.5Y-124.6
X360.5Y-143.6
X360.5Y-162.6
X365.0Y-183.7
X365.5Y-107.7
X365.5Y-126.7
X365.5Y-145.7
X365.5Y-164.7
T7
X334.1Y-94.75
X334.1Y-101.25
T8
X367.25Y-86.9
X367.25Y-95.1
M30
