M48
; DRILL file {KiCad 8.0.3} date 2024-08-10T17:19:07+0200
; FORMAT={-:-/ absolute / inch / decimal}
; #@! TF.CreationDate,2024-08-10T17:19:07+02:00
; #@! TF.GenerationSoftware,Kicad,Pcbnew,8.0.3
; #@! TF.FileFunction,MixedPlating,1,2
FMAT,2
INCH
; #@! TA.AperFunction,Plated,PTH,ViaDrill
T1C0.0118
; #@! TA.AperFunction,Plated,PTH,ComponentDrill
T2C0.0295
; #@! TA.AperFunction,Plated,PTH,ComponentDrill
T3C0.0315
; #@! TA.AperFunction,Plated,PTH,ComponentDrill
T4C0.0354
; #@! TA.AperFunction,Plated,PTH,ComponentDrill
T5C0.0430
; #@! TA.AperFunction,Plated,PTH,ComponentDrill
T6C0.0472
; #@! TA.AperFunction,Plated,PTH,ComponentDrill
T7C0.0512
; #@! TA.AperFunction,Plated,PTH,ComponentDrill
T8C0.0591
; #@! TA.AperFunction,NonPlated,NPTH,ComponentDrill
T9C0.0748
; #@! TA.AperFunction,NonPlated,NPTH,ComponentDrill
T10C0.1063
; #@! TA.AperFunction,NonPlated,NPTH,ComponentDrill
T11C0.1358
%
G90
G05
T1
X6.7717Y-3.248
T2
X14.0398Y-3.5039
X14.0398Y-3.5827
T3
X3.3465Y-4.2398
X3.3465Y-4.5398
X3.3661Y-3.3343
X3.3661Y-3.6343
X3.7008Y-4.9878
X3.7008Y-5.2878
X3.7008Y-6.4839
X3.7008Y-6.7839
X3.7008Y-7.2319
X3.7008Y-7.5319
X3.878Y-5.7358
X3.878Y-6.0358
X4.0945Y-4.2398
X4.0945Y-4.5398
X4.4488Y-3.3343
X4.4488Y-3.6343
X4.4488Y-4.9878
X4.4488Y-5.2878
X4.4488Y-6.4839
X4.4488Y-6.7839
X4.626Y-5.7358
X4.626Y-6.0358
X4.626Y-7.2319
X4.626Y-7.5319
X4.8425Y-4.2398
X4.8425Y-4.5398
X5.1969Y-3.3343
X5.1969Y-3.6343
X5.1969Y-4.9878
X5.1969Y-5.2878
X5.1969Y-6.4839
X5.1969Y-6.7839
X5.374Y-5.7358
X5.374Y-6.0358
X5.5512Y-7.2319
X5.5512Y-7.5319
X5.5906Y-4.2398
X5.5906Y-4.5398
X5.9449Y-3.3343
X5.9449Y-3.6343
X5.9449Y-4.9878
X5.9449Y-5.2878
X5.9449Y-6.4839
X5.9449Y-6.7839
X6.122Y-5.7358
X6.122Y-6.0358
X6.3386Y-4.2398
X6.3386Y-4.5398
X6.6929Y-3.3343
X6.6929Y-3.6343
X6.6929Y-4.9878
X6.6929Y-5.2878
X6.6929Y-6.4839
X6.6929Y-6.7839
X6.8701Y-5.7358
X6.8701Y-6.0358
X7.0866Y-4.2398
X7.0866Y-4.5398
X7.4409Y-4.9878
X7.4409Y-5.2878
X7.4409Y-6.4839
X7.4409Y-6.7839
X7.6181Y-5.7358
X7.6181Y-6.0358
X7.6378Y-3.3343
X7.6378Y-3.6343
X7.8346Y-4.2398
X7.8346Y-4.5398
X8.189Y-4.9878
X8.189Y-5.2878
X8.189Y-6.4839
X8.189Y-6.7839
X8.3661Y-5.7358
X8.3661Y-6.0358
X8.3858Y-3.3343
X8.3858Y-3.6343
X8.5827Y-4.2398
X8.5827Y-4.5398
X8.937Y-4.9878
X8.937Y-5.2878
X8.937Y-6.4839
X8.937Y-6.7839
X9.1142Y-5.7358
X9.1142Y-6.0358
X9.1339Y-3.3343
X9.1339Y-3.6343
X9.3307Y-4.2398
X9.3307Y-4.5398
X9.4882Y-7.2319
X9.4882Y-7.5319
X9.685Y-4.9878
X9.685Y-5.2878
X9.685Y-6.4839
X9.685Y-6.7839
X9.8622Y-5.7358
X9.8622Y-6.0358
X9.8819Y-3.3343
X9.8819Y-3.6343
X10.0787Y-4.2398
X10.0787Y-4.5398
X10.4134Y-7.2319
X10.4134Y-7.5319
X10.4331Y-4.9878
X10.4331Y-5.2878
X10.4331Y-6.4839
X10.4331Y-6.7839
X10.6102Y-5.7358
X10.6102Y-6.0358
X10.8268Y-3.3343
X10.8268Y-3.6343
X10.8268Y-4.2398
X10.8268Y-4.5398
X11.1811Y-4.9878
X11.1811Y-5.2878
X11.1811Y-6.4839
X11.1811Y-6.7839
X11.3386Y-7.2319
X11.3386Y-7.5319
X11.3583Y-5.7358
X11.3583Y-6.0358
X11.5748Y-3.3343
X11.5748Y-3.6343
X11.5748Y-4.2398
X11.5748Y-4.5398
X11.9291Y-4.9878
X11.9291Y-5.2878
X11.9291Y-6.4839
X11.9291Y-6.7839
X12.1063Y-5.7358
X12.1063Y-6.0358
X12.2638Y-7.2319
X12.2638Y-7.5319
X12.3228Y-3.3343
X12.3228Y-3.6343
X12.3228Y-4.2398
X12.3228Y-4.5398
X12.6772Y-4.9878
X12.6772Y-5.2878
X12.8543Y-5.7358
X12.8543Y-6.0358
X13.0315Y-6.4839
X13.0315Y-6.7839
X13.0512Y-7.2319
X13.0512Y-7.5319
X13.0709Y-3.3343
X13.0709Y-3.6343
X13.0709Y-4.2398
X13.0709Y-4.5398
X13.7992Y-5.3224
X13.7992Y-5.6224
X13.7992Y-6.4839
X13.7992Y-6.7839
X13.7992Y-7.2319
X13.7992Y-7.5319
X13.8189Y-4.2398
X13.8189Y-4.5398
X13.9764Y-4.7638
X13.9764Y-5.5118
X13.9764Y-6.2598
X13.9764Y-7.0079
X14.0232Y-4.0157
X14.2764Y-4.7638
X14.2764Y-5.5118
X14.2764Y-6.2598
X14.2764Y-7.0079
X14.3232Y-4.0157
T4
X14.4587Y-3.5039
X14.4587Y-3.5827
X14.4587Y-3.6614
T5
X13.2929Y-3.2386
X13.2929Y-3.8386
X13.3929Y-3.2386
X13.3929Y-3.8386
X13.4929Y-3.2386
X13.4929Y-3.3386
X13.4929Y-3.4386
X13.4929Y-3.5386
X13.4929Y-3.8386
X13.5929Y-3.2386
X13.5929Y-3.8386
X13.6929Y-3.2386
X13.6929Y-3.8386
X13.7929Y-3.2386
X13.7929Y-3.8386
X13.8929Y-3.2386
X13.8929Y-3.8386
X13.9929Y-3.2386
X13.9929Y-3.8386
X14.0929Y-3.2386
X14.0929Y-3.8386
X14.1929Y-3.2386
X14.1929Y-3.8386
X14.2929Y-3.2386
X14.2929Y-3.8386
X14.3929Y-3.2386
X14.3929Y-3.8386
T6
X2.9724Y-3.252
X2.9724Y-4.1575
X3.1496Y-4.9055
X3.1496Y-6.4016
X3.1496Y-7.1496
X3.1693Y-3.3346
X3.1693Y-4.2402
X3.2382Y-5.6535
X3.3465Y-4.9882
X3.3465Y-6.4843
X3.3465Y-7.2323
X3.435Y-5.7362
X3.7205Y-4.1575
X3.9173Y-4.2402
X4.0748Y-3.252
X4.0748Y-4.9055
X4.0748Y-6.4016
X4.1634Y-7.1496
X4.252Y-5.6535
X4.2717Y-3.3346
X4.2717Y-4.9882
X4.2717Y-6.4843
X4.3602Y-7.2323
X4.4488Y-5.7362
X4.4685Y-4.1575
X4.6654Y-4.2402
X4.8228Y-3.252
X4.8228Y-4.9055
X4.8228Y-6.4016
X5.0Y-5.6535
X5.0197Y-3.3346
X5.0197Y-4.9882
X5.0197Y-6.4843
X5.0886Y-7.1496
X5.1969Y-5.7362
X5.2165Y-4.1575
X5.2854Y-7.2323
X5.4134Y-4.2402
X5.5709Y-3.252
X5.5709Y-4.9055
X5.5709Y-6.4016
X5.748Y-5.6535
X5.7677Y-3.3346
X5.7677Y-4.9882
X5.7677Y-6.4843
X5.9449Y-5.7362
X5.9646Y-4.1575
X6.1614Y-4.2402
X6.3189Y-3.252
X6.3189Y-4.9055
X6.3189Y-6.4016
X6.4961Y-5.6535
X6.5157Y-3.3346
X6.5157Y-4.9882
X6.5157Y-6.4843
X6.6929Y-5.7362
X6.7126Y-4.1575
X6.9094Y-4.2402
X7.0669Y-4.9055
X7.0669Y-6.4016
X7.2441Y-5.6535
X7.2638Y-3.252
X7.2638Y-4.9882
X7.2638Y-6.4843
X7.4409Y-5.7362
X7.4606Y-3.3346
X7.4606Y-4.1575
X7.5197Y-7.1496
X7.6575Y-4.2402
X7.7165Y-7.2323
X7.815Y-4.9055
X7.815Y-6.4016
X7.9921Y-5.6535
X8.0118Y-3.252
X8.0118Y-4.9882
X8.0118Y-6.4843
X8.189Y-5.7362
X8.2087Y-3.3346
X8.2087Y-4.1575
X8.4055Y-4.2402
X8.563Y-4.9055
X8.563Y-6.4016
X8.7402Y-5.6535
X8.7598Y-3.252
X8.7598Y-4.9882
X8.7598Y-6.4843
X8.937Y-5.7362
X8.9567Y-3.3346
X8.9567Y-4.1575
X9.1535Y-4.2402
X9.311Y-4.9055
X9.311Y-6.4016
X9.4882Y-5.6535
X9.5079Y-3.252
X9.5079Y-4.9882
X9.5079Y-6.4843
X9.685Y-5.7362
X9.7047Y-3.3346
X9.7047Y-4.1575
X9.9016Y-4.2402
X9.9508Y-7.1496
X10.0591Y-4.9055
X10.0591Y-6.4016
X10.1476Y-7.2323
X10.2362Y-5.6535
X10.2559Y-4.9882
X10.2559Y-6.4843
X10.4331Y-5.7362
X10.4528Y-3.252
X10.4528Y-4.1575
X10.6496Y-3.3346
X10.6496Y-4.2402
X10.8071Y-4.9055
X10.8071Y-6.4016
X10.876Y-7.1496
X10.9843Y-5.6535
X11.0039Y-4.9882
X11.0039Y-6.4843
X11.0728Y-7.2323
X11.1811Y-5.7362
X11.2008Y-3.252
X11.2008Y-4.1575
X11.3976Y-3.3346
X11.3976Y-4.2402
X11.5551Y-4.9055
X11.5551Y-6.4016
X11.7323Y-5.6535
X11.752Y-4.9882
X11.752Y-6.4843
X11.8012Y-7.1496
X11.9291Y-5.7362
X11.9488Y-3.252
X11.9488Y-4.1575
X11.998Y-7.2323
X12.1457Y-3.3346
X12.1457Y-4.2402
X12.3031Y-4.9055
X12.4803Y-5.6535
X12.4803Y-6.4016
X12.5Y-4.9882
X12.6772Y-5.7362
X12.6772Y-6.4843
X12.6772Y-7.1496
X12.6969Y-3.252
X12.6969Y-4.1575
X12.874Y-7.2323
X12.8937Y-3.3346
X12.8937Y-4.2402
X13.3268Y-5.2402
X13.4252Y-6.4016
X13.4252Y-7.1496
X13.4449Y-4.1575
X13.5236Y-5.3228
X13.622Y-6.4843
X13.622Y-7.2323
X13.6417Y-4.2402
X14.1732Y-7.1496
X14.1929Y-4.1575
X14.1929Y-4.9055
X14.1929Y-5.6535
X14.1929Y-6.4016
X14.3701Y-7.2323
X14.3898Y-4.2402
X14.3898Y-4.9882
X14.3898Y-5.7362
X14.3898Y-6.4843
T7
X13.1535Y-3.7303
X13.1535Y-3.9862
T8
X14.4587Y-3.4213
X14.4587Y-3.7441
T9
X2.7559Y-3.4843
X2.7559Y-4.3898
X2.9331Y-5.1378
X2.9331Y-6.6339
X2.9331Y-7.3819
X3.0217Y-5.8858
X3.189Y-3.4843
X3.189Y-4.3898
X3.3661Y-5.1378
X3.3661Y-6.6339
X3.3661Y-7.3819
X3.4547Y-5.8858
X3.5039Y-4.3898
X3.8583Y-3.4843
X3.8583Y-5.1378
X3.8583Y-6.6339
X3.937Y-4.3898
X3.9469Y-7.3819
X4.0354Y-5.8858
X4.252Y-4.3898
X4.2913Y-3.4843
X4.2913Y-5.1378
X4.2913Y-6.6339
X4.3799Y-7.3819
X4.4685Y-5.8858
X4.6063Y-3.4843
X4.6063Y-5.1378
X4.6063Y-6.6339
X4.685Y-4.3898
X4.7835Y-5.8858
X4.872Y-7.3819
X5.0Y-4.3898
X5.0394Y-3.4843
X5.0394Y-5.1378
X5.0394Y-6.6339
X5.2165Y-5.8858
X5.3051Y-7.3819
X5.3543Y-3.4843
X5.3543Y-5.1378
X5.3543Y-6.6339
X5.4331Y-4.3898
X5.5315Y-5.8858
X5.748Y-4.3898
X5.7874Y-3.4843
X5.7874Y-5.1378
X5.7874Y-6.6339
X5.9646Y-5.8858
X6.1024Y-3.4843
X6.1024Y-5.1378
X6.1024Y-6.6339
X6.1811Y-4.3898
X6.2795Y-5.8858
X6.4961Y-4.3898
X6.5354Y-3.4843
X6.5354Y-5.1378
X6.5354Y-6.6339
X6.7126Y-5.8858
X6.8504Y-5.1378
X6.8504Y-6.6339
X6.9291Y-4.3898
X7.0276Y-5.8858
X7.0472Y-3.4843
X7.2441Y-4.3898
X7.2835Y-5.1378
X7.2835Y-6.6339
X7.3031Y-7.3819
X7.4606Y-5.8858
X7.4803Y-3.4843
X7.5984Y-5.1378
X7.5984Y-6.6339
X7.6772Y-4.3898
X7.7362Y-7.3819
X7.7756Y-5.8858
X7.7953Y-3.4843
X7.9921Y-4.3898
X8.0315Y-5.1378
X8.0315Y-6.6339
X8.2087Y-5.8858
X8.2283Y-3.4843
X8.3465Y-5.1378
X8.3465Y-6.6339
X8.4252Y-4.3898
X8.5236Y-5.8858
X8.5433Y-3.4843
X8.7402Y-4.3898
X8.7795Y-5.1378
X8.7795Y-6.6339
X8.9567Y-5.8858
X8.9764Y-3.4843
X9.0945Y-5.1378
X9.0945Y-6.6339
X9.1732Y-4.3898
X9.2717Y-5.8858
X9.2913Y-3.4843
X9.4882Y-4.3898
X9.5276Y-5.1378
X9.5276Y-6.6339
X9.7047Y-5.8858
X9.7244Y-3.4843
X9.7343Y-7.3819
X9.8425Y-5.1378
X9.8425Y-6.6339
X9.9213Y-4.3898
X10.0197Y-5.8858
X10.1673Y-7.3819
X10.2362Y-3.4843
X10.2362Y-4.3898
X10.2756Y-5.1378
X10.2756Y-6.6339
X10.4528Y-5.8858
X10.5906Y-5.1378
X10.5906Y-6.6339
X10.6594Y-7.3819
X10.6693Y-3.4843
X10.6693Y-4.3898
X10.7677Y-5.8858
X10.9843Y-3.4843
X10.9843Y-4.3898
X11.0236Y-5.1378
X11.0236Y-6.6339
X11.0925Y-7.3819
X11.2008Y-5.8858
X11.3386Y-5.1378
X11.3386Y-6.6339
X11.4173Y-3.4843
X11.4173Y-4.3898
X11.5157Y-5.8858
X11.5846Y-7.3819
X11.7323Y-3.4843
X11.7323Y-4.3898
X11.7717Y-5.1378
X11.7717Y-6.6339
X11.9488Y-5.8858
X12.0177Y-7.3819
X12.0866Y-5.1378
X12.1654Y-3.4843
X12.1654Y-4.3898
X12.2638Y-5.8858
X12.2638Y-6.6339
X12.4606Y-7.3819
X12.4803Y-3.4843
X12.4803Y-4.3898
X12.5197Y-5.1378
X12.6969Y-5.8858
X12.6969Y-6.6339
X12.8937Y-7.3819
X12.9134Y-3.4843
X12.9134Y-4.3898
X13.1102Y-5.4724
X13.2087Y-6.6339
X13.2087Y-7.3819
X13.2283Y-4.3898
X13.5433Y-5.4724
X13.6417Y-6.6339
X13.6417Y-7.3819
X13.6614Y-4.3898
X13.9567Y-7.3819
X13.9764Y-4.3898
X13.9764Y-5.1378
X13.9764Y-5.8858
X13.9764Y-6.6339
X14.3898Y-7.3819
X14.4094Y-4.3898
X14.4094Y-5.1378
X14.4094Y-5.8858
X14.4094Y-6.6339
T10
X3.5433Y-3.4843
X3.622Y-4.8228
X3.622Y-7.0669
X3.7598Y-5.5906
X4.2126Y-3.937
X5.5315Y-7.0669
X5.7874Y-3.937
X7.0866Y-7.0669
X7.6772Y-3.937
X8.3661Y-7.0669
X9.3307Y-3.937
X9.5079Y-7.0669
X10.8268Y-3.937
X11.3386Y-7.0669
X12.0472Y-6.3189
X12.874Y-5.2165
X12.8937Y-3.937
X12.9134Y-6.3189
X12.9134Y-6.9291
X13.6417Y-4.9409
X13.6417Y-6.0827
X14.2343Y-3.4921
T11
X2.9724Y-3.4843
X2.9724Y-4.3898
X3.1496Y-5.1378
X3.1496Y-6.6339
X3.1496Y-7.3819
X3.2382Y-5.8858
X3.7205Y-4.3898
X4.0748Y-3.4843
X4.0748Y-5.1378
X4.0748Y-6.6339
X4.1634Y-7.3819
X4.252Y-5.8858
X4.4685Y-4.3898
X4.8228Y-3.4843
X4.8228Y-5.1378
X4.8228Y-6.6339
X5.0Y-5.8858
X5.0886Y-7.3819
X5.2165Y-4.3898
X5.5709Y-3.4843
X5.5709Y-5.1378
X5.5709Y-6.6339
X5.748Y-5.8858
X5.9646Y-4.3898
X6.3189Y-3.4843
X6.3189Y-5.1378
X6.3189Y-6.6339
X6.4961Y-5.8858
X6.7126Y-4.3898
X7.0669Y-5.1378
X7.0669Y-6.6339
X7.2441Y-5.8858
X7.2638Y-3.4843
X7.4606Y-4.3898
X7.5197Y-7.3819
X7.815Y-5.1378
X7.815Y-6.6339
X7.9921Y-5.8858
X8.0118Y-3.4843
X8.2087Y-4.3898
X8.563Y-5.1378
X8.563Y-6.6339
X8.7402Y-5.8858
X8.7598Y-3.4843
X8.9567Y-4.3898
X9.311Y-5.1378
X9.311Y-6.6339
X9.4882Y-5.8858
X9.5079Y-3.4843
X9.7047Y-4.3898
X9.9508Y-7.3819
X10.0591Y-5.1378
X10.0591Y-6.6339
X10.2362Y-5.8858
X10.4528Y-3.4843
X10.4528Y-4.3898
X10.8071Y-5.1378
X10.8071Y-6.6339
X10.876Y-7.3819
X10.9843Y-5.8858
X11.2008Y-3.4843
X11.2008Y-4.3898
X11.5551Y-5.1378
X11.5551Y-6.6339
X11.7323Y-5.8858
X11.8012Y-7.3819
X11.9488Y-3.4843
X11.9488Y-4.3898
X12.3031Y-5.1378
X12.4803Y-5.8858
X12.4803Y-6.6339
X12.6772Y-7.3819
X12.6969Y-3.4843
X12.6969Y-4.3898
X13.3268Y-5.4724
X13.4252Y-6.6339
X13.4252Y-7.3819
X13.4449Y-4.3898
X14.1732Y-7.3819
X14.1929Y-4.3898
X14.1929Y-5.1378
X14.1929Y-5.8858
X14.1929Y-6.6339
M30
