M48
; DRILL file {KiCad 8.0.4} date 2024-07-27T12:14:12+0200
; FORMAT={-:-/ absolute / metric / decimal}
; #@! TF.CreationDate,2024-07-27T12:14:12+02:00
; #@! TF.GenerationSoftware,Kicad,Pcbnew,8.0.4
; #@! TF.FileFunction,NonPlated,1,2,NPTH
FMAT,2
METRIC
; #@! TA.AperFunction,NonPlated,NPTH,ComponentDrill
T1C1.900
; #@! TA.AperFunction,NonPlated,NPTH,ComponentDrill
T2C2.700
; #@! TA.AperFunction,NonPlated,NPTH,ComponentDrill
T3C3.450
%
G90
G05
T1
X70.0Y-88.5
X70.0Y-111.5
X74.5Y-130.5
X74.5Y-168.5
X74.5Y-187.5
X76.75Y-149.5
X81.0Y-88.5
X81.0Y-111.5
X85.5Y-130.5
X85.5Y-168.5
X85.5Y-187.5
X87.75Y-149.5
X89.0Y-111.5
X98.0Y-88.5
X98.0Y-130.5
X98.0Y-168.5
X100.0Y-111.5
X100.25Y-187.5
X102.5Y-149.5
X108.0Y-111.5
X109.0Y-88.5
X109.0Y-130.5
X109.0Y-168.5
X111.25Y-187.5
X113.5Y-149.5
X117.0Y-88.5
X117.0Y-130.5
X117.0Y-168.5
X119.0Y-111.5
X121.5Y-149.5
X123.75Y-187.5
X127.0Y-111.5
X128.0Y-88.5
X128.0Y-130.5
X128.0Y-168.5
X132.5Y-149.5
X134.75Y-187.5
X136.0Y-88.5
X136.0Y-130.5
X136.0Y-168.5
X138.0Y-111.5
X140.5Y-149.5
X146.0Y-111.5
X147.0Y-88.5
X147.0Y-130.5
X147.0Y-168.5
X151.5Y-149.5
X155.0Y-88.5
X155.0Y-130.5
X155.0Y-168.5
X157.0Y-111.5
X159.5Y-149.5
X165.0Y-111.5
X166.0Y-88.5
X166.0Y-130.5
X166.0Y-168.5
X170.5Y-149.5
X174.0Y-130.5
X174.0Y-168.5
X176.0Y-111.5
X178.5Y-149.5
X179.0Y-88.5
X184.0Y-111.5
X185.0Y-130.5
X185.0Y-168.5
X185.5Y-187.5
X189.5Y-149.5
X190.0Y-88.5
X193.0Y-130.5
X193.0Y-168.5
X195.0Y-111.5
X196.5Y-187.5
X197.5Y-149.5
X198.0Y-88.5
X203.0Y-111.5
X204.0Y-130.5
X204.0Y-168.5
X208.5Y-149.5
X209.0Y-88.5
X212.0Y-130.5
X212.0Y-168.5
X214.0Y-111.5
X216.5Y-149.5
X217.0Y-88.5
X222.0Y-111.5
X223.0Y-130.5
X223.0Y-168.5
X227.5Y-149.5
X228.0Y-88.5
X231.0Y-130.5
X231.0Y-168.5
X233.0Y-111.5
X235.5Y-149.5
X236.0Y-88.5
X241.0Y-111.5
X242.0Y-130.5
X242.0Y-168.5
X246.5Y-149.5
X247.0Y-88.5
X247.25Y-187.5
X250.0Y-130.5
X250.0Y-168.5
X252.0Y-111.5
X254.5Y-149.5
X258.25Y-187.5
X260.0Y-88.5
X260.0Y-111.5
X261.0Y-130.5
X261.0Y-168.5
X265.5Y-149.5
X269.0Y-130.5
X269.0Y-168.5
X270.75Y-187.5
X271.0Y-88.5
X271.0Y-111.5
X273.5Y-149.5
X279.0Y-88.5
X279.0Y-111.5
X280.0Y-130.5
X280.0Y-168.5
X281.75Y-187.5
X284.5Y-149.5
X288.0Y-130.5
X288.0Y-168.5
X290.0Y-88.5
X290.0Y-111.5
X292.5Y-149.5
X294.25Y-187.5
X298.0Y-88.5
X298.0Y-111.5
X299.0Y-130.5
X299.0Y-168.5
X303.5Y-149.5
X305.25Y-187.5
X307.0Y-130.5
X309.0Y-88.5
X309.0Y-111.5
X311.5Y-149.5
X311.5Y-168.5
X316.5Y-187.5
X317.0Y-88.5
X317.0Y-111.5
X318.0Y-130.5
X322.5Y-149.5
X322.5Y-168.5
X327.5Y-187.5
X328.0Y-88.5
X328.0Y-111.5
X333.0Y-139.0
X335.5Y-168.5
X335.5Y-187.5
X336.0Y-111.5
X344.0Y-139.0
X346.5Y-168.5
X346.5Y-187.5
X347.0Y-111.5
X354.5Y-187.5
X355.0Y-111.5
X355.0Y-130.5
X355.0Y-149.5
X355.0Y-168.5
X365.5Y-187.5
X366.0Y-111.5
X366.0Y-130.5
X366.0Y-149.5
X366.0Y-168.5
T2
X69.0Y-100.0
X69.0Y-130.5
X69.0Y-163.5
X69.0Y-194.0
X90.5Y-82.5
X92.0Y-122.5
X95.5Y-142.0
X107.0Y-100.0
X140.5Y-179.5
X147.0Y-100.0
X169.5Y-194.0
X180.0Y-179.5
X195.0Y-100.0
X212.5Y-179.5
X212.5Y-193.5
X237.0Y-100.0
X241.5Y-179.5
X275.0Y-100.0
X288.0Y-179.5
X306.0Y-160.5
X327.0Y-132.5
X327.5Y-100.0
X328.0Y-160.0
X328.0Y-176.0
X346.0Y-154.5
X346.5Y-125.5
X361.55Y-88.7
T3
X75.5Y-88.5
X75.5Y-111.5
X80.0Y-130.5
X80.0Y-168.5
X80.0Y-187.5
X82.25Y-149.5
X94.5Y-111.5
X103.5Y-88.5
X103.5Y-130.5
X103.5Y-168.5
X105.75Y-187.5
X108.0Y-149.5
X113.5Y-111.5
X122.5Y-88.5
X122.5Y-130.5
X122.5Y-168.5
X127.0Y-149.5
X129.25Y-187.5
X132.5Y-111.5
X141.5Y-88.5
X141.5Y-130.5
X141.5Y-168.5
X146.0Y-149.5
X151.5Y-111.5
X160.5Y-88.5
X160.5Y-130.5
X160.5Y-168.5
X165.0Y-149.5
X170.5Y-111.5
X179.5Y-130.5
X179.5Y-168.5
X184.0Y-149.5
X184.5Y-88.5
X189.5Y-111.5
X191.0Y-187.5
X198.5Y-130.5
X198.5Y-168.5
X203.0Y-149.5
X203.5Y-88.5
X208.5Y-111.5
X217.5Y-130.5
X217.5Y-168.5
X222.0Y-149.5
X222.5Y-88.5
X227.5Y-111.5
X236.5Y-130.5
X236.5Y-168.5
X241.0Y-149.5
X241.5Y-88.5
X246.5Y-111.5
X252.75Y-187.5
X255.5Y-130.5
X255.5Y-168.5
X260.0Y-149.5
X265.5Y-88.5
X265.5Y-111.5
X274.5Y-130.5
X274.5Y-168.5
X276.25Y-187.5
X279.0Y-149.5
X284.5Y-88.5
X284.5Y-111.5
X293.5Y-130.5
X293.5Y-168.5
X298.0Y-149.5
X299.75Y-187.5
X303.5Y-88.5
X303.5Y-111.5
X312.5Y-130.5
X317.0Y-149.5
X317.0Y-168.5
X322.0Y-187.5
X322.5Y-88.5
X322.5Y-111.5
X338.5Y-139.0
X341.0Y-168.5
X341.0Y-187.5
X341.5Y-111.5
X360.0Y-187.5
X360.5Y-111.5
X360.5Y-130.5
X360.5Y-149.5
X360.5Y-168.5
M30
