%TF.GenerationSoftware,KiCad,Pcbnew,8.0.4*%
%TF.CreationDate,2024-08-10T17:33:58+02:00*%
%TF.ProjectId,AC-K1-v1,41432d4b-312d-4763-912e-6b696361645f,rev?*%
%TF.SameCoordinates,Original*%
%TF.FileFunction,Soldermask,Bot*%
%TF.FilePolarity,Negative*%
%FSLAX46Y46*%
G04 Gerber Fmt 4.6, Leading zero omitted, Abs format (unit mm)*
G04 Created by KiCad (PCBNEW 8.0.4) date 2024-08-10 17:33:58*
%MOMM*%
%LPD*%
G01*
G04 APERTURE LIST*
G04 Aperture macros list*
%AMRoundRect*
0 Rectangle with rounded corners*
0 $1 Rounding radius*
0 $2 $3 $4 $5 $6 $7 $8 $9 X,Y pos of 4 corners*
0 Add a 4 corners polygon primitive as box body*
4,1,4,$2,$3,$4,$5,$6,$7,$8,$9,$2,$3,0*
0 Add four circle primitives for the rounded corners*
1,1,$1+$1,$2,$3*
1,1,$1+$1,$4,$5*
1,1,$1+$1,$6,$7*
1,1,$1+$1,$8,$9*
0 Add four rect primitives between the rounded corners*
20,1,$1+$1,$2,$3,$4,$5,0*
20,1,$1+$1,$4,$5,$6,$7,0*
20,1,$1+$1,$6,$7,$8,$9,0*
20,1,$1+$1,$8,$9,$2,$3,0*%
G04 Aperture macros list end*
%ADD10C,1.900000*%
%ADD11C,3.450000*%
%ADD12C,2.200000*%
%ADD13C,2.700000*%
%ADD14C,1.752600*%
%ADD15R,2.250000X2.250000*%
%ADD16C,2.250000*%
%ADD17R,1.600000X1.600000*%
%ADD18O,1.600000X1.600000*%
%ADD19O,3.500000X2.200000*%
%ADD20R,2.500000X1.500000*%
%ADD21O,2.500000X1.500000*%
%ADD22RoundRect,0.250000X0.625000X-0.350000X0.625000X0.350000X-0.625000X0.350000X-0.625000X-0.350000X0*%
%ADD23O,1.750000X1.200000*%
G04 APERTURE END LIST*
D10*
%TO.C,SW65*%
X288000000Y-168500000D03*
D11*
X293500000Y-168500000D03*
D10*
X299000000Y-168500000D03*
D12*
X293500000Y-162600000D03*
X298500000Y-164700000D03*
%TD*%
D10*
%TO.C,SW8*%
X89000000Y-111500000D03*
D11*
X94500000Y-111500000D03*
D10*
X100000000Y-111500000D03*
D12*
X94500000Y-105600000D03*
X99500000Y-107700000D03*
%TD*%
D10*
%TO.C,SW67*%
X298000000Y-88500000D03*
D11*
X303500000Y-88500000D03*
D10*
X309000000Y-88500000D03*
D12*
X303500000Y-82600000D03*
X308500000Y-84700000D03*
%TD*%
D10*
%TO.C,SW66*%
X294250000Y-187500000D03*
D11*
X299750000Y-187500000D03*
D10*
X305250000Y-187500000D03*
D12*
X299750000Y-181600000D03*
X304750000Y-183700000D03*
%TD*%
D10*
%TO.C,SW3*%
X74500000Y-130500000D03*
D11*
X80000000Y-130500000D03*
D10*
X85500000Y-130500000D03*
D12*
X80000000Y-124600000D03*
X85000000Y-126700000D03*
%TD*%
D10*
%TO.C,SW48*%
X231000000Y-168500000D03*
D11*
X236500000Y-168500000D03*
D10*
X242000000Y-168500000D03*
D12*
X236500000Y-162600000D03*
X241500000Y-164700000D03*
%TD*%
D10*
%TO.C,SW51*%
X250000000Y-130500000D03*
D11*
X255500000Y-130500000D03*
D10*
X261000000Y-130500000D03*
D12*
X255500000Y-124600000D03*
X260500000Y-126700000D03*
%TD*%
D10*
%TO.C,SW61*%
X279000000Y-88500000D03*
D11*
X284500000Y-88500000D03*
D10*
X290000000Y-88500000D03*
D12*
X284500000Y-82600000D03*
X289500000Y-84700000D03*
%TD*%
D10*
%TO.C,SW69*%
X307000000Y-130500000D03*
D11*
X312500000Y-130500000D03*
D10*
X318000000Y-130500000D03*
D12*
X312500000Y-124600000D03*
X317500000Y-126700000D03*
%TD*%
D13*
%TO.C,11*%
X346500000Y-125500000D03*
%TD*%
D10*
%TO.C,SW54*%
X247250000Y-187500000D03*
D11*
X252750000Y-187500000D03*
D10*
X258250000Y-187500000D03*
D12*
X252750000Y-181600000D03*
X257750000Y-183700000D03*
%TD*%
D10*
%TO.C,SW64*%
X292500000Y-149500000D03*
D11*
X298000000Y-149500000D03*
D10*
X303500000Y-149500000D03*
D12*
X298000000Y-143600000D03*
X303000000Y-145700000D03*
%TD*%
D10*
%TO.C,SW18*%
X123750000Y-187500000D03*
D11*
X129250000Y-187500000D03*
D10*
X134750000Y-187500000D03*
D12*
X129250000Y-181600000D03*
X134250000Y-183700000D03*
%TD*%
D13*
%TO.C,27*%
X328000000Y-160500000D03*
%TD*%
%TO.C,4*%
X107000000Y-100000000D03*
%TD*%
D10*
%TO.C,SW49*%
X236000000Y-88500000D03*
D11*
X241500000Y-88500000D03*
D10*
X247000000Y-88500000D03*
D12*
X241500000Y-82600000D03*
X246500000Y-84700000D03*
%TD*%
D10*
%TO.C,SW63*%
X288000000Y-130500000D03*
D11*
X293500000Y-130500000D03*
D10*
X299000000Y-130500000D03*
D12*
X293500000Y-124600000D03*
X298500000Y-126700000D03*
%TD*%
D10*
%TO.C,SW77*%
X335500000Y-187500000D03*
D11*
X341000000Y-187500000D03*
D10*
X346500000Y-187500000D03*
D12*
X341000000Y-181600000D03*
X346000000Y-183700000D03*
%TD*%
D10*
%TO.C,SW11*%
X98000000Y-168500000D03*
D11*
X103500000Y-168500000D03*
D10*
X109000000Y-168500000D03*
D12*
X103500000Y-162600000D03*
X108500000Y-164700000D03*
%TD*%
D13*
%TO.C,2*%
X361550000Y-88700000D03*
%TD*%
D10*
%TO.C,SW24*%
X155000000Y-88500000D03*
D11*
X160500000Y-88500000D03*
D10*
X166000000Y-88500000D03*
D12*
X160500000Y-82600000D03*
X165500000Y-84700000D03*
%TD*%
D10*
%TO.C,SW83*%
X354500000Y-187500000D03*
D11*
X360000000Y-187500000D03*
D10*
X365500000Y-187500000D03*
D12*
X360000000Y-181600000D03*
X365000000Y-183700000D03*
%TD*%
D10*
%TO.C,SW42*%
X216500000Y-149500000D03*
D11*
X222000000Y-149500000D03*
D10*
X227500000Y-149500000D03*
D12*
X222000000Y-143600000D03*
X227000000Y-145700000D03*
%TD*%
D13*
%TO.C,7*%
X237000000Y-100000000D03*
%TD*%
D10*
%TO.C,SW53*%
X250000000Y-168500000D03*
D11*
X255500000Y-168500000D03*
D10*
X261000000Y-168500000D03*
D12*
X255500000Y-162600000D03*
X260500000Y-164700000D03*
%TD*%
D13*
%TO.C,16*%
X306000000Y-160500000D03*
%TD*%
D10*
%TO.C,SW55*%
X260000000Y-88500000D03*
D11*
X265500000Y-88500000D03*
D10*
X271000000Y-88500000D03*
D12*
X265500000Y-82600000D03*
X270500000Y-84700000D03*
%TD*%
D10*
%TO.C,SW23*%
X136000000Y-168500000D03*
D11*
X141500000Y-168500000D03*
D10*
X147000000Y-168500000D03*
D12*
X141500000Y-162600000D03*
X146500000Y-164700000D03*
%TD*%
D10*
%TO.C,SW75*%
X333000000Y-139000000D03*
D11*
X338500000Y-139000000D03*
D10*
X344000000Y-139000000D03*
D12*
X338500000Y-133100000D03*
X343500000Y-135200000D03*
%TD*%
D10*
%TO.C,SW72*%
X316500000Y-187500000D03*
D11*
X322000000Y-187500000D03*
D10*
X327500000Y-187500000D03*
D12*
X322000000Y-181600000D03*
X327000000Y-183700000D03*
%TD*%
D10*
%TO.C,SW20*%
X127000000Y-111500000D03*
D11*
X132500000Y-111500000D03*
D10*
X138000000Y-111500000D03*
D12*
X132500000Y-105600000D03*
X137500000Y-107700000D03*
%TD*%
D10*
%TO.C,SW6*%
X74500000Y-187500000D03*
D11*
X80000000Y-187500000D03*
D10*
X85500000Y-187500000D03*
D12*
X80000000Y-181600000D03*
X85000000Y-183700000D03*
%TD*%
D13*
%TO.C,13*%
X327000000Y-132500000D03*
%TD*%
%TO.C,20*%
X180000000Y-179500000D03*
%TD*%
D10*
%TO.C,SW60*%
X270750000Y-187500000D03*
D11*
X276250000Y-187500000D03*
D10*
X281750000Y-187500000D03*
D12*
X276250000Y-181600000D03*
X281250000Y-183700000D03*
%TD*%
D13*
%TO.C,18*%
X328000000Y-176000000D03*
%TD*%
D14*
%TO.C,U1*%
X365580000Y-82260000D03*
X363040000Y-82260000D03*
X360500000Y-82260000D03*
X357960000Y-82260000D03*
X355420000Y-82260000D03*
X352880000Y-82260000D03*
X350340000Y-82260000D03*
X347800000Y-82260000D03*
X345260000Y-82260000D03*
X342720000Y-82260000D03*
X340180000Y-82260000D03*
X337640000Y-82260000D03*
X337640000Y-97500000D03*
X340180000Y-97500000D03*
X342720000Y-97500000D03*
X345260000Y-97500000D03*
X347800000Y-97500000D03*
X350340000Y-97500000D03*
X352880000Y-97500000D03*
X355420000Y-97500000D03*
X357960000Y-97500000D03*
X360500000Y-97500000D03*
X363040000Y-97500000D03*
X365580000Y-97500000D03*
X342720000Y-84800000D03*
X342720000Y-87340000D03*
X342720000Y-89880000D03*
%TD*%
D10*
%TO.C,SW36*%
X197500000Y-149500000D03*
D11*
X203000000Y-149500000D03*
D10*
X208500000Y-149500000D03*
D12*
X203000000Y-143600000D03*
X208000000Y-145700000D03*
%TD*%
D10*
%TO.C,SW52*%
X254500000Y-149500000D03*
D11*
X260000000Y-149500000D03*
D10*
X265500000Y-149500000D03*
D12*
X260000000Y-143600000D03*
X265000000Y-145700000D03*
%TD*%
D13*
%TO.C,8*%
X275000000Y-100000000D03*
%TD*%
D10*
%TO.C,SW41*%
X212000000Y-130500000D03*
D11*
X217500000Y-130500000D03*
D10*
X223000000Y-130500000D03*
D12*
X217500000Y-124600000D03*
X222500000Y-126700000D03*
%TD*%
D13*
%TO.C,15*%
X346500000Y-154500000D03*
%TD*%
D10*
%TO.C,SW45*%
X222000000Y-111500000D03*
D11*
X227500000Y-111500000D03*
D10*
X233000000Y-111500000D03*
D12*
X227500000Y-105600000D03*
X232500000Y-107700000D03*
%TD*%
D13*
%TO.C,23*%
X288000000Y-179500000D03*
%TD*%
D10*
%TO.C,SW1*%
X70000000Y-88500000D03*
D11*
X75500000Y-88500000D03*
D10*
X81000000Y-88500000D03*
D12*
X75500000Y-82600000D03*
X80500000Y-84700000D03*
%TD*%
D13*
%TO.C,10*%
X92000000Y-122500000D03*
%TD*%
D10*
%TO.C,SW74*%
X317000000Y-111500000D03*
D11*
X322500000Y-111500000D03*
D10*
X328000000Y-111500000D03*
D12*
X322500000Y-105600000D03*
X327500000Y-107700000D03*
%TD*%
D10*
%TO.C,SW58*%
X273500000Y-149500000D03*
D11*
X279000000Y-149500000D03*
D10*
X284500000Y-149500000D03*
D12*
X279000000Y-143600000D03*
X284000000Y-145700000D03*
%TD*%
D10*
%TO.C,SW78*%
X336000000Y-111500000D03*
D11*
X341500000Y-111500000D03*
D10*
X347000000Y-111500000D03*
D12*
X341500000Y-105600000D03*
X346500000Y-107700000D03*
%TD*%
D13*
%TO.C,21*%
X212500000Y-179500000D03*
%TD*%
D10*
%TO.C,SW46*%
X231000000Y-130500000D03*
D11*
X236500000Y-130500000D03*
D10*
X242000000Y-130500000D03*
D12*
X236500000Y-124600000D03*
X241500000Y-126700000D03*
%TD*%
D10*
%TO.C,SW39*%
X198000000Y-88500000D03*
D11*
X203500000Y-88500000D03*
D10*
X209000000Y-88500000D03*
D12*
X203500000Y-82600000D03*
X208500000Y-84700000D03*
%TD*%
D10*
%TO.C,SW37*%
X193000000Y-168500000D03*
D11*
X198500000Y-168500000D03*
D10*
X204000000Y-168500000D03*
D12*
X198500000Y-162600000D03*
X203500000Y-164700000D03*
%TD*%
D10*
%TO.C,SW29*%
X165000000Y-111500000D03*
D11*
X170500000Y-111500000D03*
D10*
X176000000Y-111500000D03*
D12*
X170500000Y-105600000D03*
X175500000Y-107700000D03*
%TD*%
D13*
%TO.C,19*%
X140500000Y-179500000D03*
%TD*%
D10*
%TO.C,SW15*%
X117000000Y-130500000D03*
D11*
X122500000Y-130500000D03*
D10*
X128000000Y-130500000D03*
D12*
X122500000Y-124600000D03*
X127500000Y-126700000D03*
%TD*%
D10*
%TO.C,SW35*%
X193000000Y-130500000D03*
D11*
X198500000Y-130500000D03*
D10*
X204000000Y-130500000D03*
D12*
X198500000Y-124600000D03*
X203500000Y-126700000D03*
%TD*%
D10*
%TO.C,SW13*%
X117000000Y-88500000D03*
D11*
X122500000Y-88500000D03*
D10*
X128000000Y-88500000D03*
D12*
X122500000Y-82600000D03*
X127500000Y-84700000D03*
%TD*%
D10*
%TO.C,SW79*%
X355000000Y-111500000D03*
D11*
X360500000Y-111500000D03*
D10*
X366000000Y-111500000D03*
D12*
X360500000Y-105600000D03*
X365500000Y-107700000D03*
%TD*%
D10*
%TO.C,SW28*%
X155000000Y-168500000D03*
D11*
X160500000Y-168500000D03*
D10*
X166000000Y-168500000D03*
D12*
X160500000Y-162600000D03*
X165500000Y-164700000D03*
%TD*%
D10*
%TO.C,SW7*%
X98000000Y-88500000D03*
D11*
X103500000Y-88500000D03*
D10*
X109000000Y-88500000D03*
D12*
X103500000Y-82600000D03*
X108500000Y-84700000D03*
%TD*%
D13*
%TO.C,6*%
X195000000Y-100000000D03*
%TD*%
D10*
%TO.C,SW70*%
X311500000Y-149500000D03*
D11*
X317000000Y-149500000D03*
D10*
X322500000Y-149500000D03*
D12*
X317000000Y-143600000D03*
X322000000Y-145700000D03*
%TD*%
D10*
%TO.C,SW2*%
X70000000Y-111500000D03*
D11*
X75500000Y-111500000D03*
D10*
X81000000Y-111500000D03*
D12*
X75500000Y-105600000D03*
X80500000Y-107700000D03*
%TD*%
D10*
%TO.C,SW62*%
X279000000Y-111500000D03*
D11*
X284500000Y-111500000D03*
D10*
X290000000Y-111500000D03*
D12*
X284500000Y-105600000D03*
X289500000Y-107700000D03*
%TD*%
D10*
%TO.C,SW12*%
X100250000Y-187500000D03*
D11*
X105750000Y-187500000D03*
D10*
X111250000Y-187500000D03*
D12*
X105750000Y-181600000D03*
X110750000Y-183700000D03*
%TD*%
D10*
%TO.C,SW32*%
X174000000Y-168500000D03*
D11*
X179500000Y-168500000D03*
D10*
X185000000Y-168500000D03*
D12*
X179500000Y-162600000D03*
X184500000Y-164700000D03*
%TD*%
D10*
%TO.C,SW30*%
X174000000Y-130500000D03*
D11*
X179500000Y-130500000D03*
D10*
X185000000Y-130500000D03*
D12*
X179500000Y-124600000D03*
X184500000Y-126700000D03*
%TD*%
D10*
%TO.C,SW33*%
X179000000Y-88500000D03*
D11*
X184500000Y-88500000D03*
D10*
X190000000Y-88500000D03*
D12*
X184500000Y-82600000D03*
X189500000Y-84700000D03*
%TD*%
D15*
%TO.C,SW85*%
X334100000Y-101250000D03*
D16*
X334100000Y-94750000D03*
%TD*%
D13*
%TO.C,50*%
X92000000Y-179500000D03*
%TD*%
D10*
%TO.C,SW57*%
X269000000Y-130500000D03*
D11*
X274500000Y-130500000D03*
D10*
X280000000Y-130500000D03*
D12*
X274500000Y-124600000D03*
X279500000Y-126700000D03*
%TD*%
D10*
%TO.C,SW71*%
X311500000Y-168500000D03*
D11*
X317000000Y-168500000D03*
D10*
X322500000Y-168500000D03*
D12*
X317000000Y-162600000D03*
X322000000Y-164700000D03*
%TD*%
D10*
%TO.C,SW56*%
X260000000Y-111500000D03*
D11*
X265500000Y-111500000D03*
D10*
X271000000Y-111500000D03*
D12*
X265500000Y-105600000D03*
X270500000Y-107700000D03*
%TD*%
D10*
%TO.C,SW16*%
X121500000Y-149500000D03*
D11*
X127000000Y-149500000D03*
D10*
X132500000Y-149500000D03*
D12*
X127000000Y-143600000D03*
X132000000Y-145700000D03*
%TD*%
D10*
%TO.C,SW38*%
X185500000Y-187500000D03*
D11*
X191000000Y-187500000D03*
D10*
X196500000Y-187500000D03*
D12*
X191000000Y-181600000D03*
X196000000Y-183700000D03*
%TD*%
D10*
%TO.C,SW80*%
X355000000Y-130500000D03*
D11*
X360500000Y-130500000D03*
D10*
X366000000Y-130500000D03*
D12*
X360500000Y-124600000D03*
X365500000Y-126700000D03*
%TD*%
D13*
%TO.C,9*%
X327500000Y-100000000D03*
%TD*%
D10*
%TO.C,SW81*%
X355000000Y-149500000D03*
D11*
X360500000Y-149500000D03*
D10*
X366000000Y-149500000D03*
D12*
X360500000Y-143600000D03*
X365500000Y-145700000D03*
%TD*%
D10*
%TO.C,SW5*%
X74500000Y-168500000D03*
D11*
X80000000Y-168500000D03*
D10*
X85500000Y-168500000D03*
D12*
X80000000Y-162600000D03*
X85000000Y-164700000D03*
%TD*%
D10*
%TO.C,SW10*%
X102500000Y-149500000D03*
D11*
X108000000Y-149500000D03*
D10*
X113500000Y-149500000D03*
D12*
X108000000Y-143600000D03*
X113000000Y-145700000D03*
%TD*%
D10*
%TO.C,SW21*%
X136000000Y-130500000D03*
D11*
X141500000Y-130500000D03*
D10*
X147000000Y-130500000D03*
D12*
X141500000Y-124600000D03*
X146500000Y-126700000D03*
%TD*%
D10*
%TO.C,SW76*%
X335500000Y-168500000D03*
D11*
X341000000Y-168500000D03*
D10*
X346500000Y-168500000D03*
D12*
X341000000Y-162600000D03*
X346000000Y-164700000D03*
%TD*%
D10*
%TO.C,SW25*%
X146000000Y-111500000D03*
D11*
X151500000Y-111500000D03*
D10*
X157000000Y-111500000D03*
D12*
X151500000Y-105600000D03*
X156500000Y-107700000D03*
%TD*%
D10*
%TO.C,SW43*%
X212000000Y-168500000D03*
D11*
X217500000Y-168500000D03*
D10*
X223000000Y-168500000D03*
D12*
X217500000Y-162600000D03*
X222500000Y-164700000D03*
%TD*%
D10*
%TO.C,SW68*%
X298000000Y-111500000D03*
D11*
X303500000Y-111500000D03*
D10*
X309000000Y-111500000D03*
D12*
X303500000Y-105600000D03*
X308500000Y-107700000D03*
%TD*%
D10*
%TO.C,SW22*%
X140500000Y-149500000D03*
D11*
X146000000Y-149500000D03*
D10*
X151500000Y-149500000D03*
D12*
X146000000Y-143600000D03*
X151000000Y-145700000D03*
%TD*%
D10*
%TO.C,SW14*%
X108000000Y-111500000D03*
D11*
X113500000Y-111500000D03*
D10*
X119000000Y-111500000D03*
D12*
X113500000Y-105600000D03*
X118500000Y-107700000D03*
%TD*%
D10*
%TO.C,SW19*%
X136000000Y-88500000D03*
D11*
X141500000Y-88500000D03*
D10*
X147000000Y-88500000D03*
D12*
X141500000Y-82600000D03*
X146500000Y-84700000D03*
%TD*%
D10*
%TO.C,SW44*%
X217000000Y-88500000D03*
D11*
X222500000Y-88500000D03*
D10*
X228000000Y-88500000D03*
D12*
X222500000Y-82600000D03*
X227500000Y-84700000D03*
%TD*%
D13*
%TO.C,14*%
X95500000Y-142000000D03*
%TD*%
%TO.C,5*%
X147000000Y-100000000D03*
%TD*%
D10*
%TO.C,SW82*%
X355000000Y-168500000D03*
D11*
X360500000Y-168500000D03*
D10*
X366000000Y-168500000D03*
D12*
X360500000Y-162600000D03*
X365500000Y-164700000D03*
%TD*%
D10*
%TO.C,SW59*%
X269000000Y-168500000D03*
D11*
X274500000Y-168500000D03*
D10*
X280000000Y-168500000D03*
D12*
X274500000Y-162600000D03*
X279500000Y-164700000D03*
%TD*%
D10*
%TO.C,SW40*%
X203000000Y-111500000D03*
D11*
X208500000Y-111500000D03*
D10*
X214000000Y-111500000D03*
D12*
X208500000Y-105600000D03*
X213500000Y-107700000D03*
%TD*%
D10*
%TO.C,SW31*%
X178500000Y-149500000D03*
D11*
X184000000Y-149500000D03*
D10*
X189500000Y-149500000D03*
D12*
X184000000Y-143600000D03*
X189000000Y-145700000D03*
%TD*%
D13*
%TO.C,1*%
X90000000Y-88500000D03*
%TD*%
D10*
%TO.C,SW26*%
X155000000Y-130500000D03*
D11*
X160500000Y-130500000D03*
D10*
X166000000Y-130500000D03*
D12*
X160500000Y-124600000D03*
X165500000Y-126700000D03*
%TD*%
D10*
%TO.C,SW73*%
X317000000Y-88500000D03*
D11*
X322500000Y-88500000D03*
D10*
X328000000Y-88500000D03*
D12*
X322500000Y-82600000D03*
X327500000Y-84700000D03*
%TD*%
D10*
%TO.C,SW50*%
X241000000Y-111500000D03*
D11*
X246500000Y-111500000D03*
D10*
X252000000Y-111500000D03*
D12*
X246500000Y-105600000D03*
X251500000Y-107700000D03*
%TD*%
D10*
%TO.C,SW27*%
X159500000Y-149500000D03*
D11*
X165000000Y-149500000D03*
D10*
X170500000Y-149500000D03*
D12*
X165000000Y-143600000D03*
X170000000Y-145700000D03*
%TD*%
D10*
%TO.C,SW47*%
X235500000Y-149500000D03*
D11*
X241000000Y-149500000D03*
D10*
X246500000Y-149500000D03*
D12*
X241000000Y-143600000D03*
X246000000Y-145700000D03*
%TD*%
D13*
%TO.C,22*%
X241500000Y-179500000D03*
%TD*%
D10*
%TO.C,SW9*%
X98000000Y-130500000D03*
D11*
X103500000Y-130500000D03*
D10*
X109000000Y-130500000D03*
D12*
X103500000Y-124600000D03*
X108500000Y-126700000D03*
%TD*%
D10*
%TO.C,SW17*%
X117000000Y-168500000D03*
D11*
X122500000Y-168500000D03*
D10*
X128000000Y-168500000D03*
D12*
X122500000Y-162600000D03*
X127500000Y-164700000D03*
%TD*%
D10*
%TO.C,SW4*%
X76750000Y-149500000D03*
D11*
X82250000Y-149500000D03*
D10*
X87750000Y-149500000D03*
D12*
X82250000Y-143600000D03*
X87250000Y-145700000D03*
%TD*%
D10*
%TO.C,SW34*%
X184000000Y-111500000D03*
D11*
X189500000Y-111500000D03*
D10*
X195000000Y-111500000D03*
D12*
X189500000Y-105600000D03*
X194500000Y-107700000D03*
%TD*%
D17*
%TO.C,D8*%
X104000000Y-115310000D03*
D18*
X104000000Y-107690000D03*
%TD*%
D17*
%TO.C,D62*%
X294000000Y-115310000D03*
D18*
X294000000Y-107690000D03*
%TD*%
D17*
%TO.C,D57*%
X284000000Y-134310000D03*
D18*
X284000000Y-126690000D03*
%TD*%
D17*
%TO.C,D79*%
X356190000Y-102000000D03*
D18*
X363810000Y-102000000D03*
%TD*%
D17*
%TO.C,D20*%
X142000000Y-115310000D03*
D18*
X142000000Y-107690000D03*
%TD*%
D17*
%TO.C,D77*%
X350500000Y-191310000D03*
D18*
X350500000Y-183690000D03*
%TD*%
D17*
%TO.C,D49*%
X251000000Y-92310000D03*
D18*
X251000000Y-84690000D03*
%TD*%
D17*
%TO.C,D31*%
X193500000Y-153310000D03*
D18*
X193500000Y-145690000D03*
%TD*%
D17*
%TO.C,D41*%
X227000000Y-134310000D03*
D18*
X227000000Y-126690000D03*
%TD*%
D17*
%TO.C,D21*%
X151000000Y-134310000D03*
D18*
X151000000Y-126690000D03*
%TD*%
D17*
%TO.C,D72*%
X331500000Y-191310000D03*
D18*
X331500000Y-183690000D03*
%TD*%
D17*
%TO.C,D58*%
X288500000Y-153310000D03*
D18*
X288500000Y-145690000D03*
%TD*%
D17*
%TO.C,D15*%
X132000000Y-134310000D03*
D18*
X132000000Y-126690000D03*
%TD*%
D17*
%TO.C,D27*%
X174500000Y-153310000D03*
D18*
X174500000Y-145690000D03*
%TD*%
D17*
%TO.C,D75*%
X350500000Y-142810000D03*
D18*
X350500000Y-135190000D03*
%TD*%
D17*
%TO.C,D66*%
X311500000Y-191310000D03*
D18*
X311500000Y-183690000D03*
%TD*%
D17*
%TO.C,D68*%
X313000000Y-115310000D03*
D18*
X313000000Y-107690000D03*
%TD*%
D17*
%TO.C,D17*%
X132000000Y-172310000D03*
D18*
X132000000Y-164690000D03*
%TD*%
D17*
%TO.C,D45*%
X237000000Y-115310000D03*
D18*
X237000000Y-107690000D03*
%TD*%
D17*
%TO.C,D18*%
X141000000Y-191310000D03*
D18*
X141000000Y-183690000D03*
%TD*%
D17*
%TO.C,D28*%
X170000000Y-172310000D03*
D18*
X170000000Y-164690000D03*
%TD*%
D17*
%TO.C,D80*%
X355000000Y-121000000D03*
D18*
X362620000Y-121000000D03*
%TD*%
D17*
%TO.C,D10*%
X117500000Y-153310000D03*
D18*
X117500000Y-145690000D03*
%TD*%
D17*
%TO.C,D11*%
X113000000Y-172310000D03*
D18*
X113000000Y-164690000D03*
%TD*%
D17*
%TO.C,D56*%
X275000000Y-115310000D03*
D18*
X275000000Y-107690000D03*
%TD*%
D17*
%TO.C,D44*%
X232000000Y-92310000D03*
D18*
X232000000Y-84690000D03*
%TD*%
D19*
%TO.C,SW84*%
X367250000Y-86900000D03*
X367250000Y-95100000D03*
D20*
X367250000Y-89000000D03*
D21*
X367250000Y-91000000D03*
X367250000Y-93000000D03*
%TD*%
D17*
%TO.C,D5*%
X94000000Y-172310000D03*
D18*
X94000000Y-164690000D03*
%TD*%
D17*
%TO.C,D16*%
X136500000Y-153310000D03*
D18*
X136500000Y-145690000D03*
%TD*%
D17*
%TO.C,D39*%
X213000000Y-92310000D03*
D18*
X213000000Y-84690000D03*
%TD*%
D17*
%TO.C,D73*%
X332000000Y-92310000D03*
D18*
X332000000Y-84690000D03*
%TD*%
D17*
%TO.C,D32*%
X189000000Y-172310000D03*
D18*
X189000000Y-164690000D03*
%TD*%
D17*
%TO.C,D83*%
X355000000Y-178000000D03*
D18*
X362620000Y-178000000D03*
%TD*%
D17*
%TO.C,D33*%
X194000000Y-92310000D03*
D18*
X194000000Y-84690000D03*
%TD*%
D17*
%TO.C,D4*%
X98500000Y-153310000D03*
D18*
X98500000Y-145690000D03*
%TD*%
D17*
%TO.C,D26*%
X170000000Y-134310000D03*
D18*
X170000000Y-126690000D03*
%TD*%
D17*
%TO.C,D74*%
X332000000Y-115310000D03*
D18*
X332000000Y-107690000D03*
%TD*%
D17*
%TO.C,D3*%
X94000000Y-134310000D03*
D18*
X94000000Y-126690000D03*
%TD*%
D17*
%TO.C,D76*%
X350500000Y-172310000D03*
D18*
X350500000Y-164690000D03*
%TD*%
D17*
%TO.C,D1*%
X85500000Y-92310000D03*
D18*
X85500000Y-84690000D03*
%TD*%
D17*
%TO.C,D30*%
X189000000Y-134310000D03*
D18*
X189000000Y-126690000D03*
%TD*%
D17*
%TO.C,D47*%
X250500000Y-153310000D03*
D18*
X250500000Y-145690000D03*
%TD*%
D17*
%TO.C,D51*%
X265000000Y-134310000D03*
D18*
X265000000Y-126690000D03*
%TD*%
D17*
%TO.C,D50*%
X256000000Y-115310000D03*
D18*
X256000000Y-107690000D03*
%TD*%
D17*
%TO.C,D12*%
X117500000Y-191310000D03*
D18*
X117500000Y-183690000D03*
%TD*%
D17*
%TO.C,D29*%
X180000000Y-115310000D03*
D18*
X180000000Y-107690000D03*
%TD*%
D17*
%TO.C,D70*%
X326500000Y-153310000D03*
D18*
X326500000Y-145690000D03*
%TD*%
D17*
%TO.C,D71*%
X331000000Y-172310000D03*
D18*
X331000000Y-164690000D03*
%TD*%
D17*
%TO.C,D54*%
X264500000Y-191310000D03*
D18*
X264500000Y-183690000D03*
%TD*%
D17*
%TO.C,D46*%
X246000000Y-134310000D03*
D18*
X246000000Y-126690000D03*
%TD*%
D17*
%TO.C,D37*%
X208000000Y-172310000D03*
D18*
X208000000Y-164690000D03*
%TD*%
D17*
%TO.C,D34*%
X199000000Y-115310000D03*
D18*
X199000000Y-107690000D03*
%TD*%
D17*
%TO.C,D60*%
X288000000Y-191310000D03*
D18*
X288000000Y-183690000D03*
%TD*%
D17*
%TO.C,D64*%
X307500000Y-153310000D03*
D18*
X307500000Y-145690000D03*
%TD*%
D17*
%TO.C,D48*%
X246000000Y-172310000D03*
D18*
X246000000Y-164690000D03*
%TD*%
D17*
%TO.C,D63*%
X303000000Y-134310000D03*
D18*
X303000000Y-126690000D03*
%TD*%
D17*
%TO.C,D2*%
X85000000Y-115310000D03*
D18*
X85000000Y-107690000D03*
%TD*%
D17*
%TO.C,D23*%
X151000000Y-172310000D03*
D18*
X151000000Y-164690000D03*
%TD*%
D17*
%TO.C,D67*%
X313000000Y-92310000D03*
D18*
X313000000Y-84690000D03*
%TD*%
D17*
%TO.C,D55*%
X275000000Y-92310000D03*
D18*
X275000000Y-84690000D03*
%TD*%
D17*
%TO.C,D81*%
X355000000Y-140000000D03*
D18*
X362620000Y-140000000D03*
%TD*%
D17*
%TO.C,D59*%
X284000000Y-172310000D03*
D18*
X284000000Y-164690000D03*
%TD*%
D17*
%TO.C,D25*%
X161000000Y-115310000D03*
D18*
X161000000Y-107690000D03*
%TD*%
D17*
%TO.C,D35*%
X208000000Y-134310000D03*
D18*
X208000000Y-126690000D03*
%TD*%
D17*
%TO.C,D14*%
X123000000Y-115310000D03*
D18*
X123000000Y-107690000D03*
%TD*%
D17*
%TO.C,D38*%
X241000000Y-191310000D03*
D18*
X241000000Y-183690000D03*
%TD*%
D17*
%TO.C,D82*%
X355000000Y-159000000D03*
D18*
X362620000Y-159000000D03*
%TD*%
D17*
%TO.C,D42*%
X231500000Y-153310000D03*
D18*
X231500000Y-145690000D03*
%TD*%
D17*
%TO.C,D36*%
X212500000Y-153310000D03*
D18*
X212500000Y-145690000D03*
%TD*%
D17*
%TO.C,D53*%
X265000000Y-172310000D03*
D18*
X265000000Y-164690000D03*
%TD*%
D17*
%TO.C,D19*%
X151000000Y-92310000D03*
D18*
X151000000Y-84690000D03*
%TD*%
D17*
%TO.C,D7*%
X113000000Y-92310000D03*
D18*
X113000000Y-84690000D03*
%TD*%
D22*
%TO.C,J1*%
X356610000Y-91000000D03*
D23*
X356610000Y-89000000D03*
%TD*%
D17*
%TO.C,D22*%
X155500000Y-153310000D03*
D18*
X155500000Y-145690000D03*
%TD*%
D17*
%TO.C,D43*%
X227000000Y-172310000D03*
D18*
X227000000Y-164690000D03*
%TD*%
D17*
%TO.C,D24*%
X170000000Y-92310000D03*
D18*
X170000000Y-84690000D03*
%TD*%
D17*
%TO.C,D13*%
X132000000Y-92310000D03*
D18*
X132000000Y-84690000D03*
%TD*%
D17*
%TO.C,D52*%
X269500000Y-153310000D03*
D18*
X269500000Y-145690000D03*
%TD*%
D17*
%TO.C,D61*%
X294000000Y-92310000D03*
D18*
X294000000Y-84690000D03*
%TD*%
D17*
%TO.C,D69*%
X322000000Y-134310000D03*
D18*
X322000000Y-126690000D03*
%TD*%
D17*
%TO.C,D65*%
X303000000Y-172310000D03*
D18*
X303000000Y-164690000D03*
%TD*%
D17*
%TO.C,D40*%
X218000000Y-115310000D03*
D18*
X218000000Y-107690000D03*
%TD*%
D17*
%TO.C,D6*%
X94000000Y-191310000D03*
D18*
X94000000Y-183690000D03*
%TD*%
D17*
%TO.C,D78*%
X351000000Y-115310000D03*
D18*
X351000000Y-107690000D03*
%TD*%
D17*
%TO.C,D9*%
X113000000Y-134310000D03*
D18*
X113000000Y-126690000D03*
%TD*%
M02*
